# xmcd
#
# Track frame offsets: 
#        150
#        25143
#        50050
#        77627
#        98235
#        121675
#        147220
#        167262
#        185514
#        209979
#        226319
#        250571
#        269127
#        294765
#        312111
#
# Disc length: 4456 seconds
#
# Revision: 4
# Processed by: cddbd v1.5.2PL0 Copyright (c) Steve Scherf et al.
# Submitted via: ExactAudioCopyFreeDBPlugin 1.0
#
DISCID=cd11660f
DTITLE=JUJU - JUJU [CD2]
DYEAR=2010
DGENRE=JPop
TTITLE0=LET'S WAIT AWHILE
TTITLE1=YEARNING FOR YOUR LOVE
TTITLE2=奇跡を望むなら...-English version-
TTITLE3=There Must Be An Angel (Playing With My Heart)
TTITLE4=I like it
TTITLE5=New York State Of Mind
TTITLE6=Something About Us
TTITLE7=THE POWER OF LOVE
TTITLE8=LAST CHRISTMAS
TTITLE9=DON'T KNOW WHY
TTITLE10=NEVER STOP
TTITLE11=Saving All My Love For You
TTITLE12=Street Life
TTITLE13=The Rose
TTITLE14=Ex-Factor
EXTD=YEAR: 2010
EXTT0=
EXTT1=
EXTT2=
EXTT3=
EXTT4=
EXTT5=
EXTT6=
EXTT7=
EXTT8=
EXTT9=
EXTT10=
EXTT11=
EXTT12=
EXTT13=
EXTT14=
PLAYORDER=
